<svg width="447" height="266" viewBox="0 0 447 266" fill="none" xmlns="http://www.w3.org/2000/svg">
<path d="M447 264.442H0V265.802H447V264.442Z" fill="#3F3D56"/>
<path d="M318.018 121.335C314.516 100.375 296.265 84.4022 274.277 84.4022H184.356C162.377 84.4022 144.129 100.362 140.615 121.31C140.209 123.706 140 126.169 140 128.68V206.89C140 209.401 140.209 211.861 140.615 214.256C143.412 230.945 155.565 244.471 171.511 249.276C175.576 250.503 179.889 251.164 184.356 251.164H274.277C278.743 251.164 283.056 250.503 287.122 249.276C303.072 244.467 315.229 230.933 318.018 214.231C318.419 211.844 318.628 209.393 318.628 206.89V128.68C318.628 126.178 318.419 123.723 318.018 121.335ZM281.886 249.276C279.414 249.715 276.873 249.945 274.277 249.945H184.356C181.76 249.945 179.219 249.715 176.746 249.276C156.556 245.691 141.226 228.077 141.226 206.89V180.93C141.226 107.575 200.793 85.6257 274.277 85.6257C298.097 85.6257 317.407 104.902 317.407 128.68V206.89C259.582 214.615 302.077 245.691 281.886 249.276V249.276Z" fill="#3F3D56"/>
<path d="M247.21 143.421L250.669 165.868L301.407 158.961L296.506 132.735L247.21 143.421Z" fill="#009EDD"/>
<path d="M287.03 17.4636H266.052V39.1398H287.03V17.4636Z" fill="#2F2E41"/>
<path d="M267.966 40.3963L273.155 24.8562H283.27L283.801 40.3963H267.966Z" fill="#FFB6B6"/>
<path opacity="0.1" d="M267.966 40.3963L273.155 24.8562H283.27L283.801 40.3963H267.966Z" fill="black"/>
<path d="M273.444 178.818L272.867 238.676L272.29 243.28V249.89L280.939 250.762L281.516 237.524C281.516 237.524 290.741 211.624 288.434 191.48C286.128 171.335 287.281 177.091 287.281 177.091L273.444 178.818Z" fill="#FFB6B6"/>
<path d="M278.934 183.518L257.658 239.484L256.517 243.983L254.108 250.14L245.734 247.812L250.021 235.272C250.021 235.272 250.866 207.796 260.356 189.869C269.845 171.942 266.673 176.885 266.673 176.885L278.934 183.518V183.518Z" fill="#FFB6B6"/>
<path d="M267.966 38.6696L252.399 45.5763L262.339 96.8078L260.768 170.338L250.39 192.21C250.39 192.21 248.651 204.718 266.525 196.66C284.399 188.602 304.578 186.3 304.578 186.3L299.678 152.63L295.353 64.2819L295.93 44.7129L283.245 36.6551L267.966 38.6696V38.6696Z" fill="#2F2E41"/>
<path d="M259.296 193.009L242.021 164.141L261.762 96.8078L252.399 45.5763L268.826 38.5563C268.826 38.5563 277.33 46.8227 277.33 53.641C277.33 60.4593 259.296 193.009 259.296 193.009V193.009Z" fill="#E6E6E6"/>
<path d="M296.773 187.253L281.092 52.7872C280.894 51.0893 281.184 49.3703 281.929 47.831L286.417 38.5563L304.002 43.5618L296.933 98.5344L315.822 152.63L296.773 187.253H296.773Z" fill="#E6E6E6"/>
<path d="M282.669 249.611C282.669 249.611 271.714 243.28 270.561 246.733C269.408 250.187 268.831 253.064 268.831 253.064C268.831 253.064 265.948 264 274.597 264C283.245 264 282.669 259.026 282.669 259.026V249.611Z" fill="#2F2E41"/>
<path d="M244.542 246.111C244.542 246.111 257.054 244.192 256.869 247.828C256.685 251.463 256.173 254.353 256.173 254.353C256.173 254.353 254.874 265.586 246.818 262.446C238.762 259.305 241.111 254.882 241.111 254.882L244.542 246.111V246.111Z" fill="#2F2E41"/>
<path d="M278.887 33.314C286.803 33.314 293.221 26.908 293.221 19.0057C293.221 11.1035 286.803 4.69743 278.887 4.69743C270.971 4.69743 264.553 11.1035 264.553 19.0057C264.553 26.908 270.971 33.314 278.887 33.314Z" fill="#FFB6B6"/>
<path d="M290.339 6.25495C289.672 2.72716 286.044 0.34103 282.46 0.0418153C278.876 -0.257399 275.365 1.09351 272.138 2.67741C269.95 3.7511 267.796 4.96128 266.024 6.63253C264.252 8.30378 262.875 10.487 262.557 12.8998C262.445 13.7535 262.46 14.6454 262.11 15.4324C261.672 16.4154 260.734 17.0831 260.167 17.998C259.151 19.6389 259.618 22.0261 261.177 23.1651C259.217 23.9991 257.202 24.8691 255.708 26.3857C254.213 27.9022 253.35 30.2437 254.171 32.2072C254.461 32.9019 254.94 33.51 255.188 34.2207C255.659 35.5704 255.211 37.1038 254.376 38.2645C253.54 39.4253 252.362 40.286 251.203 41.1263C254.18 41.7087 257.218 42.1624 260.238 41.8907C263.259 41.6191 266.291 40.5623 268.478 38.4652C270.665 36.368 271.869 33.133 271.084 30.2086C270.483 27.9683 268.801 26.0053 268.802 23.686C268.803 21.9033 269.807 20.2951 270.777 18.798L277.13 8.9894C277.511 8.40127 277.913 7.79267 278.515 7.43295C279.539 6.82098 280.867 7.0901 281.947 7.59803C283.026 8.10597 284.013 8.83471 285.164 9.14965C287.513 9.79241 290.238 8.3163 290.979 5.99985" fill="#2F2E41"/>
<path d="M281.872 35.3537C280.677 36.5083 278.956 36.8802 277.361 37.3481C275.765 37.816 274.069 38.5518 273.351 40.0489C272.647 41.5168 273.158 43.3801 274.323 44.5181C275.489 45.656 277.182 46.1354 278.812 46.1128C280.442 46.0902 282.031 45.6133 283.564 45.0595C287.756 43.5453 291.726 41.4211 295.311 38.775C292.989 38.1338 291.47 35.4275 292.135 33.1161C292.675 31.2359 294.329 29.9245 295.454 28.3228C297.391 25.565 297.713 21.9298 297.072 18.6231C296.431 15.3164 294.92 12.2511 293.426 9.23137C292.954 8.27679 292.47 7.30606 291.733 6.53636C290.996 5.76666 289.953 5.21523 288.892 5.32551C287.131 5.5085 286.007 7.43774 285.995 9.20459C285.983 10.9714 286.76 12.632 287.349 14.2982C287.955 16.0148 288.377 17.8345 288.214 19.6476C288.078 21.167 287.524 22.647 286.63 23.8838C285.939 24.839 285.059 25.6406 284.308 26.5492C283.727 27.2517 283.212 28.0474 283.06 28.9454C282.782 30.5795 283.742 32.2329 283.479 33.8694C283.201 35.5993 281.377 36.9237 279.643 36.6555" fill="#2F2E41"/>
<path d="M238.034 235.198C265.101 235.198 287.043 213.295 287.043 186.276C287.043 159.257 265.101 137.353 238.034 137.353C210.968 137.353 189.026 159.257 189.026 186.276C189.026 213.295 210.968 235.198 238.034 235.198Z" fill="#009EDD"/>
<path d="M251.718 136.518C251.125 140.758 248.452 143.889 245.749 143.511C243.046 143.134 241.337 139.391 241.931 135.15C242.146 133.453 242.764 131.831 243.734 130.421L246.476 112.489L254.879 113.953L251.284 131.476C251.83 133.098 251.979 134.827 251.718 136.518V136.518Z" fill="#FFB6B6"/>
<path d="M259.029 44.7129C259.029 44.7129 250.381 41.8352 249.228 52.1952C248.074 62.5552 246.921 75.2174 246.921 75.2174C246.921 75.2174 241.732 87.3041 244.038 93.6352C246.345 99.9664 250.381 95.5523 246.345 100.925C242.309 106.297 242.871 123.974 242.871 123.974L255.858 123.322C255.858 123.322 263.065 75.793 263.065 74.6419C263.065 73.4908 259.029 44.7129 259.029 44.7129V44.7129Z" fill="#E6E6E6"/>
<path d="M315.245 134.594C315.406 138.872 313.325 142.422 310.597 142.524C307.87 142.625 305.53 139.24 305.369 134.961C305.282 133.252 305.606 131.548 306.313 129.99L305.862 111.856L314.391 111.825L313.931 129.705C314.754 131.207 315.204 132.883 315.245 134.594V134.594Z" fill="#FFB6B6"/>
<path d="M301.931 44.5186C301.931 44.5186 310.629 41.7955 311.597 52.1744C312.564 62.5534 313.491 81.5653 313.491 81.5653C313.491 81.5653 318.463 93.7426 316.044 100.032C313.624 106.321 309.668 101.835 313.607 107.279C317.546 112.723 316.133 128.074 316.133 128.074L303.159 127.19C303.159 127.19 297.339 81.8528 297.36 80.7019C297.38 79.551 301.931 44.5186 301.931 44.5186V44.5186Z" fill="#E6E6E6"/>
<path d="M272.873 182.332H265.642C264.517 175.702 261.045 169.699 255.861 165.417C243.93 155.562 226.27 157.246 216.415 169.177C216.382 169.215 216.349 169.254 216.318 169.294C215.531 170.315 215.72 171.78 216.741 172.568C217.761 173.355 219.227 173.166 220.014 172.146C224.295 166.959 230.775 163.659 238.02 163.659C249.112 163.66 258.672 171.464 260.894 182.332H254.518C254.245 182.332 253.981 182.427 253.771 182.602C253.276 183.015 253.209 183.75 253.621 184.246L262.799 195.263C262.844 195.317 262.894 195.367 262.948 195.412C263.443 195.824 264.179 195.758 264.592 195.263L273.769 184.246C273.944 184.036 274.04 183.772 274.04 183.499C274.04 182.855 273.518 182.332 272.873 182.332V182.332V182.332Z" fill="white"/>
<path d="M259.299 201.432C258.278 200.645 256.813 200.834 256.025 201.854C252.63 205.966 247.929 208.791 242.705 209.861C230.071 212.447 217.732 204.302 215.145 191.668H221.522C222.167 191.668 222.689 191.145 222.689 190.501C222.689 190.228 222.593 189.964 222.418 189.754L213.241 178.737C212.828 178.242 212.092 178.175 211.597 178.588C211.543 178.633 211.493 178.683 211.448 178.737L202.27 189.754C201.858 190.25 201.925 190.985 202.42 191.398C202.63 191.573 202.894 191.668 203.167 191.668H210.398C211.523 198.298 214.994 204.301 220.179 208.583C232.11 218.438 249.77 216.754 259.624 204.823C259.658 204.785 259.69 204.746 259.721 204.706C260.509 203.685 260.32 202.22 259.299 201.432H259.299V201.432Z" fill="white"/>
</svg>
